<svg width="38" height="49" viewBox="0 0 22 20" xmlns="http://www.w3.org/2000/svg">
<g clip-path="url(#clip0_13_2919)">
<path d="M18 48.5H20C21.0609 48.5 22.0783 48.0786 22.8284 47.3284C23.5786 46.5783 24 45.5609 24 44.5H14C14 45.5609 14.4214 46.5783 15.1716 47.3284C15.9217 48.0786 16.9391 48.5 18 48.5ZM33.5 33.5H33.333L31.453 19.4C31.1658 17.2545 30.3286 15.2198 29.0226 13.4935C27.7167 11.7672 25.9865 10.408 24 9.548V5.5C24 4.17392 23.4732 2.90215 22.5355 1.96447C21.5979 1.02678 20.3261 0.5 19 0.5C17.6739 0.5 16.4021 1.02678 15.4645 1.96447C14.5268 2.90215 14 4.17392 14 5.5V9.548C12.0135 10.408 10.2833 11.7672 8.97736 13.4935C7.67141 15.2198 6.83418 17.2545 6.547 19.4L4.667 33.5H4.5C3.30653 33.5 2.16193 33.9741 1.31802 34.818C0.474106 35.6619 0 36.8065 0 38C0 39.1935 0.474106 40.3381 1.31802 41.182C2.16193 42.0259 3.30653 42.5 4.5 42.5H33.5C34.6935 42.5 35.8381 42.0259 36.682 41.182C37.5259 40.3381 38 39.1935 38 38C38 36.8065 37.5259 35.6619 36.682 34.818C35.8381 33.9741 34.6935 33.5 33.5 33.5ZM19 3.5C19.3956 3.5 19.7822 3.6173 20.1111 3.83706C20.44 4.05682 20.6964 4.36918 20.8478 4.73463C20.9991 5.10009 21.0387 5.50222 20.9616 5.89018C20.8844 6.27814 20.6939 6.63451 20.4142 6.91421C20.1345 7.19392 19.7781 7.3844 19.3902 7.46157C19.0022 7.53874 18.6001 7.49913 18.2346 7.34776C17.8692 7.19638 17.5568 6.94004 17.3371 6.61114C17.1173 6.28224 17 5.89556 17 5.5C17 4.96957 17.2107 4.46086 17.5858 4.08579C17.9609 3.71071 18.4696 3.5 19 3.5Z"/>
</g>
<defs>
<clipPath id="clip0_13_2919">
<rect width="38" height="48" transform="translate(0 0.5)"/>
</clipPath>
</defs>
</svg>
